<?xml version="1.0" encoding="utf-8"?>
<!-- Generator: Adobe Illustrator 16.0.0, SVG Export Plug-In . SVG Version: 6.00 Build 0)  -->
<!DOCTYPE svg PUBLIC "-//W3C//DTD SVG 1.1//EN" "http://www.w3.org/Graphics/SVG/1.1/DTD/svg11.dtd">
<svg version="1.1" id="Layer_1" xmlns="http://www.w3.org/2000/svg" xmlns:xlink="http://www.w3.org/1999/xlink" x="0px" y="0px"
	 width="58.949px" height="58.834px" viewBox="0 0 58.949 58.834" enable-background="new 0 0 58.949 58.834" xml:space="preserve">
<g>
	<path fill="#E36D25" d="M26.974,11.825V0C17.151,0.828,8.702,6.464,3.991,14.556C1.458,18.906,0,23.961,0,29.359
		c0,4.502,1.026,8.758,2.832,12.574l10.193-5.755c-0.858-2.086-1.338-4.366-1.338-6.761C11.687,20.444,18.337,13.044,26.974,11.825z
		"/>
	<path fill="#BF202E" d="M47.263,29.418c0,2.309-0.454,4.507-1.255,6.531l10.134,5.937c1.792-3.804,2.808-8.044,2.808-12.526
		c0-5.342-1.428-10.348-3.911-14.668C50.342,6.527,41.853,0.832,31.975,0v11.825C40.611,13.043,47.263,20.443,47.263,29.418z"/>
	<path fill="#358789" d="M29.475,47.206c-5.636,0-10.651-2.63-13.91-6.72l-10.219,5.77c5.33,7.6,14.141,12.578,24.129,12.578
		c10.005,0,18.831-4.998,24.158-12.622l-10.104-5.92C40.276,44.491,35.198,47.206,29.475,47.206z"/>
</g>
</svg>
