<svg xmlns="http://www.w3.org/2000/svg" width="16.68" height="20" viewBox="0 0 16.68 20">
  <metadata><?xpacket begin="﻿" id="W5M0MpCehiHzreSzNTczkc9d"?>
<x:xmpmeta xmlns:x="adobe:ns:meta/" x:xmptk="Adobe XMP Core 5.6-c138 79.159824, 2016/09/14-01:09:01        ">
   <rdf:RDF xmlns:rdf="http://www.w3.org/1999/02/22-rdf-syntax-ns#">
      <rdf:Description rdf:about=""/>
   </rdf:RDF>
</x:xmpmeta>
                                                                                                    
                                                                                                    
                                                                                                    
                                                                                                    
                                                                                                    
                                                                                                    
                                                                                                    
                                                                                                    
                                                                                                    
                                                                                                    
                                                                                                    
                                                                                                    
                                                                                                    
                                                                                                    
                                                                                                    
                                                                                                    
                                                                                                    
                                                                                                    
                                                                                                    
                                                                                                    
                           
<?xpacket end="w"?></metadata>
<defs>
    <style>
      .cls-1 {
        fill: #13baf6;
        fill-rule: evenodd;
      }
    </style>
  </defs>
  <path class="cls-1" d="M1038.5,469.5a5.485,5.485,0,0,0-5.48,5.477V477.6h-1.19a1.674,1.674,0,0,0-1.66,1.667v8.572a1.674,1.674,0,0,0,1.66,1.667h13.34a1.674,1.674,0,0,0,1.66-1.667v-8.572a1.674,1.674,0,0,0-1.66-1.667h-1.19v-2.619A5.485,5.485,0,0,0,1038.5,469.5Zm0,1.429a4.028,4.028,0,0,1,4.05,4.048V477.6h-8.1v-2.619A4.028,4.028,0,0,1,1038.5,470.928Zm-6.67,8.1h13.34a0.228,0.228,0,0,1,.24.239v8.572a0.227,0.227,0,0,1-.24.238h-13.34a0.227,0.227,0,0,1-.24-0.238v-8.572A0.228,0.228,0,0,1,1031.83,479.023Zm6.67,2.382a2.143,2.143,0,1,0,2.14,2.143A2.155,2.155,0,0,0,1038.5,481.405Zm0,1.429a0.715,0.715,0,1,1-.71.714A0.7,0.7,0,0,1,1038.5,482.834Z" transform="translate(-1030.16 -469.5)"/>
</svg>
