<svg xmlns="http://www.w3.org/2000/svg" width="20" height="20" viewBox="0 0 20 20">
  <metadata><?xpacket begin="﻿" id="W5M0MpCehiHzreSzNTczkc9d"?>
<x:xmpmeta xmlns:x="adobe:ns:meta/" x:xmptk="Adobe XMP Core 5.6-c138 79.159824, 2016/09/14-01:09:01        ">
   <rdf:RDF xmlns:rdf="http://www.w3.org/1999/02/22-rdf-syntax-ns#">
      <rdf:Description rdf:about=""/>
   </rdf:RDF>
</x:xmpmeta>
                                                                                                    
                                                                                                    
                                                                                                    
                                                                                                    
                                                                                                    
                                                                                                    
                                                                                                    
                                                                                                    
                                                                                                    
                                                                                                    
                                                                                                    
                                                                                                    
                                                                                                    
                                                                                                    
                                                                                                    
                                                                                                    
                                                                                                    
                                                                                                    
                                                                                                    
                                                                                                    
                           
<?xpacket end="w"?></metadata>
<defs>
    <style>
      .cls-1 {
        fill: #13baf6;
        fill-rule: evenodd;
      }
    </style>
  </defs>
  <path id="user" class="cls-1" d="M1038.5,452.5a10,10,0,1,0-10-9.99A10.015,10.015,0,0,0,1038.5,452.5Zm-5.94-3.86a5.663,5.663,0,0,0,.56.479l3.06-2.043a2.268,2.268,0,0,1,.93-0.353,0.715,0.715,0,0,0,.61-0.53,0.791,0.791,0,0,0-.26-0.782,5.747,5.747,0,0,1-1.76-4.239c0-2.169,1.21-3.607,3-3.607s3.01,1.463,3.01,3.607a5.647,5.647,0,0,1-1.82,4.264,0.744,0.744,0,0,0-.28.732,0.7,0.7,0,0,0,.56.555,1.66,1.66,0,0,1,.68.3l3.08,2.019a6.078,6.078,0,0,0,.56-0.505,8.429,8.429,0,0,1-5.99,2.5A8.527,8.527,0,0,1,1032.56,448.643Zm5.94-14.683a8.526,8.526,0,0,1,5.99,14.607c0.17-.176.35-0.353,0.5-0.53-0.05-.05-0.12-0.075-0.17-0.126h0l-3.16-2.068a0.227,0.227,0,0,1-.05-0.026,7.529,7.529,0,0,0,1.56-4.616c0-2.9-1.89-5.046-4.47-5.046s-4.47,2.145-4.47,5.071a7.748,7.748,0,0,0,1.44,4.465c-0.1.051-.23,0.126-0.33,0.177l-3.05,2.043a2.928,2.928,0,0,1-.26.177c0.15,0.176.33,0.353,0.51,0.53A8.528,8.528,0,0,1,1038.5,433.96Z" transform="translate(-1028.5 -432.5)"/>
</svg>
