<?xml version="1.0" encoding="utf-8"?>
<!-- Generator: Adobe Illustrator 16.0.0, SVG Export Plug-In . SVG Version: 6.00 Build 0)  -->
<!DOCTYPE svg PUBLIC "-//W3C//DTD SVG 1.1//EN" "http://www.w3.org/Graphics/SVG/1.1/DTD/svg11.dtd">
<svg version="1.1" id="Layer_1" xmlns="http://www.w3.org/2000/svg" xmlns:xlink="http://www.w3.org/1999/xlink" x="0px" y="0px"
	 width="133.498px" height="26px" viewBox="0 0 133.498 26" enable-background="new 0 0 133.498 26" xml:space="preserve">
<g>
	<g>
		<path fill="#E26D25" d="M10.382,4.551V0C6.602,0.318,3.35,2.488,1.536,5.603C0.561,7.277,0,9.223,0,11.301
			c0,1.733,0.395,3.371,1.09,4.839l3.923-2.215c-0.33-0.803-0.515-1.68-0.515-2.602C4.499,7.87,7.058,5.021,10.382,4.551z"/>
		<path fill="#BE202E" d="M18.191,11.323c0,0.889-0.175,1.734-0.483,2.514l3.9,2.285c0.689-1.464,1.081-3.096,1.081-4.821
			c0-2.057-0.549-3.983-1.505-5.646C19.377,2.512,16.109,0.32,12.307,0v4.551C15.631,5.021,18.191,7.869,18.191,11.323z"/>
		<path fill="#358688" d="M11.345,18.169c-2.169,0-4.1-1.012-5.354-2.586l-3.933,2.221c2.052,2.925,5.443,4.841,9.287,4.841
			c3.852,0,7.248-1.923,9.299-4.858l-3.889-2.278C15.502,17.125,13.548,18.169,11.345,18.169z"/>
	</g>
	<g>
		<path fill="#FFFFFF" d="M25.913,19.368v-2.194c1.215,0.959,2.587,1.438,4.116,1.438c1.24,0,2.229-0.31,2.969-0.93
			c0.74-0.62,1.11-1.455,1.11-2.504c0-2.322-1.649-3.483-4.946-3.483h-1.475V9.973h1.4c2.933,0,4.4-1.091,4.4-3.273
			c0-2.016-1.12-3.024-3.359-3.024c-1.248,0-2.425,0.426-3.533,1.277V2.969c1.141-0.678,2.487-1.016,4.041-1.016
			c1.496,0,2.692,0.396,3.588,1.189c0.897,0.793,1.345,1.81,1.345,3.049c0,2.339-1.19,3.843-3.57,4.512v0.05
			c1.281,0.124,2.299,0.573,3.056,1.345c0.756,0.773,1.135,1.738,1.135,2.895c0,1.594-0.572,2.881-1.717,3.861
			c-1.145,0.979-2.655,1.469-4.531,1.469C28.256,20.323,26.913,20.005,25.913,19.368z"/>
		<path fill="#FFFFFF" d="M40.305,20.025V2.25h4.909c6.264,0,9.396,2.888,9.396,8.665c0,2.744-0.87,4.948-2.61,6.612
			c-1.739,1.666-4.067,2.498-6.984,2.498H40.305z M42.387,4.134v14.007h2.652c2.331,0,4.145-0.624,5.442-1.872
			c1.297-1.248,1.946-3.016,1.946-5.306c0-4.553-2.422-6.83-7.264-6.83H42.387z"/>
		<path fill="#FFFFFF" d="M57.274,19.307v-2.455c0.281,0.248,0.618,0.471,1.01,0.669s0.806,0.366,1.239,0.502
			c0.435,0.137,0.87,0.242,1.308,0.316c0.438,0.074,0.843,0.111,1.215,0.111c1.281,0,2.237-0.238,2.87-0.712
			c0.632-0.476,0.948-1.159,0.948-2.052c0-0.479-0.105-0.896-0.316-1.251c-0.21-0.355-0.501-0.68-0.874-0.974
			c-0.372-0.293-0.812-0.574-1.319-0.843c-0.509-0.269-1.056-0.551-1.643-0.849c-0.62-0.314-1.198-0.632-1.735-0.955
			c-0.537-0.322-1.004-0.678-1.4-1.066s-0.708-0.828-0.936-1.32c-0.227-0.491-0.341-1.068-0.341-1.729
			c0-0.81,0.178-1.514,0.533-2.113c0.355-0.599,0.822-1.093,1.401-1.481c0.578-0.388,1.237-0.678,1.977-0.868
			c0.739-0.19,1.493-0.285,2.262-0.285c1.752,0,3.028,0.21,3.83,0.632v2.343c-1.049-0.727-2.396-1.091-4.041-1.091
			c-0.455,0-0.909,0.047-1.364,0.143c-0.455,0.094-0.859,0.25-1.214,0.464c-0.355,0.215-0.645,0.492-0.868,0.831
			s-0.334,0.752-0.334,1.24c0,0.455,0.084,0.847,0.254,1.178s0.419,0.632,0.75,0.905c0.331,0.272,0.733,0.538,1.208,0.793
			c0.475,0.256,1.022,0.538,1.642,0.843c0.637,0.314,1.24,0.645,1.81,0.992c0.57,0.347,1.07,0.731,1.5,1.152
			c0.429,0.421,0.771,0.888,1.022,1.401c0.252,0.512,0.379,1.099,0.379,1.76c0,0.876-0.173,1.618-0.516,2.225
			s-0.806,1.102-1.388,1.482c-0.583,0.379-1.254,0.655-2.014,0.824c-0.761,0.169-1.562,0.254-2.405,0.254
			c-0.281,0-0.628-0.023-1.041-0.069c-0.414-0.045-0.835-0.112-1.265-0.198s-0.837-0.193-1.221-0.322
			C57.814,19.606,57.506,19.464,57.274,19.307z"/>
		<path fill="#FFFFFF" d="M72.36,4.109c-0.364,0-0.674-0.125-0.929-0.372c-0.257-0.249-0.385-0.563-0.385-0.942
			c0-0.38,0.128-0.696,0.385-0.948c0.255-0.252,0.565-0.378,0.929-0.378c0.372,0,0.688,0.126,0.948,0.378
			C73.569,2.099,73.7,2.415,73.7,2.795c0,0.364-0.131,0.673-0.392,0.93C73.049,3.981,72.732,4.109,72.36,4.109z M73.352,20.025
			H71.32V7.332h2.032V20.025z"/>
		<path fill="#FFFFFF" d="M88.301,19.009c0,4.661-2.231,6.991-6.693,6.991c-1.569,0-2.942-0.297-4.115-0.892v-2.033
			c1.429,0.793,2.793,1.189,4.091,1.189c3.123,0,4.685-1.661,4.685-4.983v-1.389h-0.049c-0.967,1.62-2.421,2.43-4.364,2.43
			c-1.578,0-2.849-0.564-3.812-1.692c-0.963-1.127-1.444-2.642-1.444-4.543c0-2.156,0.518-3.871,1.556-5.144
			c1.037-1.272,2.456-1.909,4.258-1.909c1.71,0,2.979,0.686,3.805,2.058h0.049v-1.76h2.032V19.009z M86.269,14.286v-1.871
			c0-1.009-0.341-1.873-1.022-2.591c-0.681-0.719-1.531-1.078-2.548-1.078c-1.256,0-2.239,0.456-2.95,1.37
			c-0.71,0.913-1.066,2.192-1.066,3.836c0,1.414,0.341,2.543,1.022,3.39c0.682,0.847,1.585,1.271,2.709,1.271
			c1.141,0,2.068-0.405,2.782-1.215C85.911,16.587,86.269,15.551,86.269,14.286z"/>
		<path fill="#FFFFFF" d="M102.953,20.025h-2.032v-7.239c0-2.694-0.983-4.041-2.95-4.041c-1.016,0-1.857,0.382-2.523,1.146
			c-0.666,0.765-0.997,1.729-0.997,2.895v7.239h-2.033V7.332h2.033v2.107h0.05c0.958-1.603,2.347-2.405,4.165-2.405
			c1.388,0,2.449,0.449,3.185,1.345s1.103,2.192,1.103,3.886V20.025z"/>
		<path fill="#FFFFFF" d="M115.87,20.025h-2.032v-1.983h-0.05c-0.885,1.521-2.186,2.281-3.904,2.281
			c-1.265,0-2.255-0.335-2.969-1.004c-0.715-0.669-1.072-1.558-1.072-2.666c0-2.372,1.397-3.75,4.19-4.14l3.806-0.532
			c0-2.157-0.873-3.235-2.616-3.235c-1.528,0-2.909,0.52-4.14,1.562V8.225c1.248-0.793,2.686-1.19,4.313-1.19
			c2.983,0,4.475,1.579,4.475,4.735V20.025z M113.838,13.604l-3.063,0.421c-0.942,0.132-1.653,0.366-2.132,0.701
			c-0.479,0.334-0.719,0.927-0.719,1.778c0,0.62,0.221,1.126,0.663,1.519c0.442,0.393,1.031,0.589,1.766,0.589
			c1.008,0,1.841-0.354,2.499-1.061c0.657-0.706,0.986-1.601,0.986-2.683V13.604z"/>
		<path fill="#FFFFFF" d="M121.733,20.025H119.7V1.233h2.033V20.025z"/>
		<path fill="#FFFFFF" d="M125.081,19.567v-2.182c1.107,0.818,2.325,1.228,3.657,1.228c1.785,0,2.677-0.595,2.677-1.785
			c0-0.339-0.077-0.627-0.229-0.862c-0.153-0.235-0.359-0.445-0.62-0.626c-0.26-0.182-0.565-0.345-0.917-0.49
			c-0.351-0.144-0.729-0.296-1.135-0.453c-0.562-0.223-1.056-0.447-1.48-0.675c-0.426-0.228-0.782-0.483-1.066-0.769
			c-0.285-0.285-0.5-0.609-0.645-0.973c-0.145-0.364-0.217-0.79-0.217-1.277c0-0.595,0.136-1.122,0.409-1.581
			c0.274-0.458,0.636-0.842,1.091-1.152c0.454-0.31,0.972-0.543,1.555-0.7c0.583-0.157,1.184-0.236,1.804-0.236
			c1.099,0,2.083,0.19,2.95,0.57v2.058c-0.934-0.611-2.008-0.917-3.223-0.917c-0.379,0-0.723,0.043-1.028,0.13
			s-0.568,0.208-0.787,0.366s-0.389,0.345-0.509,0.564c-0.12,0.219-0.18,0.46-0.18,0.725c0,0.331,0.06,0.607,0.18,0.831
			c0.12,0.223,0.296,0.421,0.527,0.595c0.23,0.173,0.512,0.331,0.843,0.471c0.33,0.141,0.706,0.294,1.127,0.458
			c0.563,0.215,1.066,0.436,1.513,0.664c0.447,0.227,0.826,0.483,1.14,0.768c0.314,0.286,0.556,0.614,0.725,0.985
			c0.169,0.373,0.255,0.814,0.255,1.326c0,0.629-0.139,1.173-0.416,1.637c-0.277,0.463-0.647,0.847-1.109,1.153
			c-0.463,0.306-0.997,0.533-1.599,0.681c-0.604,0.149-1.236,0.224-1.897,0.224C127.171,20.323,126.039,20.071,125.081,19.567z"/>
	</g>
</g>
</svg>
